<svg id="bulb" xmlns="http://www.w3.org/2000/svg" viewBox="0 0 50 88.47">
  <title>bulb</title>
  <path id="light-bulb" d="M50,25A25,25,0,1,0,8.12,43.42a28.45,28.45,0,0,1,9,21.05H32.89A28.78,28.78,0,0,1,42,43.32,24.89,24.89,0,0,0,50,25Z" fill="#f8ad43"/>
  <rect x="15" y="62.47" width="20" height="9" rx="4" ry="4" fill="#294c67"/>
  <path d="M21,71.47h8a0,0,0,0,1,0,0v13a4,4,0,0,1-4,4h0a4,4,0,0,1-4-4v-13A0,0,0,0,1,21,71.47Z" fill="#294c67"/>
  <path id="draht" d="M22,64.47v-25a3,3,0,0,0-3-3h0a3,3,0,0,0-3,3h0a3,3,0,0,0,3,3H31a3,3,0,0,0,3-3h0a3,3,0,0,0-3-3h0a3,3,0,0,0-3,3v25" fill="none" stroke="#294c67" stroke-linecap="round" stroke-linejoin="round" stroke-width="2"/>
</svg>
