<svg id="kranz" xmlns="http://www.w3.org/2000/svg" viewBox="0 0 314.59 301.06">
  <title>kranz</title>
  <path id="kranz-left" d="M127.64,3.14c0.81-.82,1.14-1.69.84-2.32S127.31-.1,126.13,0c-10.29.73-33.54,6.67-43.46,15.75a45.49,45.49,0,0,0-12,15.49c-1.91-5.54-4.06-10.51-5.47-13.78-0.39-.86-1.42-1.11-2.77-0.64a9,9,0,0,0-3.88,3c-10.42,12-24.76,42.45-22.66,55.68a24,24,0,0,0-.39,4A173.9,173.9,0,0,0,24.08,66.35c-0.65-.68-1.7-0.58-2.8.3a8.77,8.77,0,0,0-2.61,4.1c-5.6,14.63-9.29,48.52-3.11,60.65a38.19,38.19,0,0,0,2.55,4.79c-5.48-3.61-10.94-6.51-14.41-8.35-0.84-.43-1.8,0-2.54,1.22A9,9,0,0,0,0,133.84c-0.48,14.26,5.54,43.35,14,55.92-3.81-.9-7.23-1.55-9.73-2-0.93-.16-1.71.56-2.07,2a9.2,9.2,0,0,0,.34,5c3.41,12.75,16,36,27.35,47.39-4.78.18-9,.54-12.1,0.78-1.09.11-1.72,1.19-1.64,2.92a11.47,11.47,0,0,0,2.14,5.63C28.07,268,60.6,297.34,78.49,300c15.77,3.22,25.08-1.17,26.92-8.53a100.53,100.53,0,0,0,20.72,4.38c1.17,0.14,2.05-.17,2.35-0.8s0-1.49-.84-2.32c-3.69-3.41-8.58-9-13.56-14.74,5.6-4.7,5.7-14.88,2-25.9-4.93-12-18.23-34.17-21.27-44.8a4.55,4.55,0,0,0-2.41-2.59,2.78,2.78,0,0,0-3,.38A77.5,77.5,0,0,0,81,213.49c-1.12-11.63-4.53-28.28-4.63-36.52A4.14,4.14,0,0,0,75,174.14a2.34,2.34,0,0,0-2.55-.43,71.05,71.05,0,0,0-8.62,4.81c2.86-11.23,4.62-30.82,7.17-39.62a4.3,4.3,0,0,0-.48-3.17,2.34,2.34,0,0,0-2.31-1.2,70.83,70.83,0,0,0-15.31,3.91A42.88,42.88,0,0,0,56,135.07c6.52-8.84,15.66-30.33,21.65-38.9a4.61,4.61,0,0,0,.63-3.27A2.31,2.31,0,0,0,76.48,91a69.5,69.5,0,0,0-16.83-1.13,28.87,28.87,0,0,0,2.25-2.32l0.29-.18c9.12-6.69,25.63-25.29,34.9-32A5.36,5.36,0,0,0,99,52.28a2.2,2.2,0,0,0-1-2.47,68.36,68.36,0,0,0-13.31-5.61,73,73,0,0,0,14.2-9.78c8-7.45,21-24.15,28.73-31.29h0Z" fill="#4f6d44"/>
  <path id="kranz-right" d="M310.31,187.75c-2.5.47-5.92,1.12-9.73,2,8.44-12.57,14.46-41.67,14-55.92a8.94,8.94,0,0,0-1.13-4.76c-0.75-1.2-1.71-1.65-2.54-1.22-3.47,1.84-8.93,4.73-14.41,8.35A38.32,38.32,0,0,0,299,131.4c6.18-12.13,2.49-46-3.11-60.65a8.77,8.77,0,0,0-2.61-4.1c-1.1-.88-2.15-1-2.8-0.3a173.9,173.9,0,0,0-11.38,13.19,24.15,24.15,0,0,0-.39-4c2.1-13.23-12.24-43.69-22.66-55.68a9,9,0,0,0-3.88-3c-1.35-.47-2.38-0.22-2.77.64-1.41,3.27-3.56,8.25-5.47,13.78a45.47,45.47,0,0,0-12-15.49C222,6.7,198.75.76,188.45,0c-1.17-.14-2.05.17-2.35,0.8s0,1.49.84,2.31c7.72,7.14,20.69,23.84,28.73,31.29a73,73,0,0,0,14.2,9.78,68.36,68.36,0,0,0-13.31,5.61,2.2,2.2,0,0,0-1,2.47,5.36,5.36,0,0,0,1.9,3.06c9.27,6.7,25.78,25.3,34.9,32l0.29,0.18a29,29,0,0,0,2.25,2.32A69.5,69.5,0,0,0,238.11,91a2.31,2.31,0,0,0-1.77,1.93,4.61,4.61,0,0,0,.63,3.27c6,8.57,15.12,30.07,21.65,38.9a42.88,42.88,0,0,0,3.06,3.37,70.82,70.82,0,0,0-15.31-3.91,2.34,2.34,0,0,0-2.31,1.2,4.3,4.3,0,0,0-.48,3.17c2.55,8.8,4.31,28.39,7.17,39.62a71.05,71.05,0,0,0-8.62-4.81,2.34,2.34,0,0,0-2.55.43,4.14,4.14,0,0,0-1.38,2.83c-0.1,8.24-3.51,24.88-4.63,36.52a77.41,77.41,0,0,0-8.35-8.42,2.78,2.78,0,0,0-3-.38,4.55,4.55,0,0,0-2.41,2.59c-3,10.63-16.33,32.78-21.27,44.8-3.73,11-3.63,21.19,2,25.9-5,5.73-9.87,11.33-13.56,14.74-0.81.82-1.13,1.69-.84,2.32s1.18,0.93,2.35.8a100.59,100.59,0,0,0,20.72-4.38c1.84,7.36,11.15,11.75,26.92,8.53,17.89-2.65,50.42-32,60.18-48.61a11.47,11.47,0,0,0,2.14-5.63c0.08-1.72-.54-2.81-1.64-2.92-3.07-.25-7.31-0.6-12.1-0.78,11.4-11.36,23.95-34.64,27.35-47.39a9.2,9.2,0,0,0,.34-5c-0.36-1.39-1.14-2.11-2.07-2h0Z" fill="#4f6d44"/>
</svg>
