<svg id="letter-single-top" xmlns="http://www.w3.org/2000/svg" viewBox="0 0 511.68 255.8">
  <title>letter-single-top</title>
  <path id="letter-single-top-body" d="M49.11,123.91q9.71,6.85,58.53,40.68t74.8,52.1q2.85,2,12.13,8.71T210,236.25q6.14,4.14,14.85,9.28a86.14,86.14,0,0,0,16.42,7.7,45.24,45.24,0,0,0,14.27,2.57h0.58a45.28,45.28,0,0,0,14.28-2.57,86.22,86.22,0,0,0,16.42-7.7q8.71-5.14,14.85-9.28t15.42-10.85q9.28-6.72,12.14-8.71,26.26-18.27,133.62-92.79a135.63,135.63,0,0,0,34.83-35.12q14-20.55,14-43.1a43.76,43.76,0,0,0-13.57-32.26Q484.5,0,465.94,0H45.68q-22,0-33.83,14.84T0,52Q0,70,15.7,91T49.11,123.91Z"/>
</svg>
