<svg id="medal" xmlns="http://www.w3.org/2000/svg" viewBox="0 0 24.17 31.7">
  <title>ribbon</title>
  <polygon id="medal-left" points="2.72 21.25 0 28.97 4.94 27.32 7.75 31.7 10.5 23.89 7.88 21.61 2.72 21.25" fill="#6d7eb5"/>
  <polygon id="medal-right" points="21.44 21.25 16.28 21.61 13.66 23.89 16.42 31.7 19.23 27.32 24.17 28.97 21.44 21.25" fill="#6d7eb5"/>
  <path id="medal-center" d="M20.19,19.57L20.51,15l3-3.49L20.51,8,20.19,3.36,15.57,3,12.08,0,8.59,3,4,3.36,3.66,8l-3,3.49,3,3.49L4,19.57l4.62,0.32,3.49,3,3.49-3ZM12,17.83a6.42,6.42,0,1,1,6.42-6.42A6.42,6.42,0,0,1,12,17.83Z" fill="#f8ad43"/>
  <polygon id="medal-number" points="9.9 8.69 10.18 9.95 11.54 9.31 11.56 9.31 11.56 14.96 13.19 14.96 13.19 7.8 11.79 7.8 9.9 8.69" fill="#f8ad43"/>
</svg>
