<svg id="stolz" xmlns="http://www.w3.org/2000/svg" viewBox="0 0 269.63 819.68">
  <title>stolz</title>
  <path d="M201.13,392.18l-8.75,40.5H134.71V268.05l-2.33-1.75-4.25,1.38-18.5-51.88-56,15.38L0,361.18,15.79,443H41.63L59.54,590.76,74.71,754.43h44l-5.83-166.83,13.75-124.67h16.25l18,126v165.5h44l6-166.5,18.5-155.25Zm-156.75,33-8.25-60.25,31.23-67.75,17.27,61.25Z" fill="#2e2d35"/>
  <g id="face">
    <g>
      <path d="M114.88,192.43v21l19.83,54.63,0.45-1.24-0.42-72.55h-0.07A112.3,112.3,0,0,1,114.88,192.43Z" fill="#fdd4a6"/>
      <path d="M134.71,194.26v73.79l19.83-54.63v-21A112.24,112.24,0,0,1,134.71,194.26Z" fill="#fdd4a6"/>
    </g>
    <g>
      <path d="M205.75,82.55c-4.87-14.95-43.71-32.12-71-32.12V201.26s20.61-3.32,25.11-5c2-.73,35.1-11.5,41.39-28.65C208.65,147.32,210.75,97.88,205.75,82.55Z" fill="#fdd4a6"/>
      <path d="M63.66,82.55c-5,15.33-2.9,64.77,4.54,85.06,6.29,17.15,39.42,27.92,41.39,28.65,4.5,1.68,25.11,5,25.11,5V50.43C107.37,50.43,68.54,67.6,63.66,82.55Z" fill="#fdd4a6"/>
    </g>
    <rect id="skin-fill" x="129.45" y="53.59" width="10.93" height="214.46" fill="#fdd4a6"/>
    <path id="right-ear" d="M206.73,101.11s5.48-7.9,14.63-3.76,5.27,38.06-7.32,38C202.7,135.29,206.73,101.11,206.73,101.11Z" fill="#fdd4ad"/>
    <path id="left-ear" d="M62.73,101.11s-5.48-7.9-14.63-3.76-5.27,38.06,7.32,38C66.76,135.29,62.73,101.11,62.73,101.11Z" fill="#fdd4ad"/>
    <g id="hair">
      <path d="M138.71,62.09s-8,7.67-15.33,8.67,3.67,11.67-33,10.33c0,0-6,6-10.67,7,0,0,.67,9,3.67,10s-6,.33-6.33-3.33c0,0-7.92,5.42-10.92,11.42,0,0,.8,18.08-2.7,22l-6.8-2.33a69.5,69.5,0,0,1-8-12.52c-5-9.65-8-16.9-4-30.9s-1.55-26.75,2.5-36.5C50.76,37.19,60.71,20.76,65,19.43S86.71,11.76,88.38,8.09s13.33-7.67,18.67-6S137,5,140.71,1.7,155,0.43,159.38,3.09s24,14.67,29.33,14,16,15,17.67,17.33,10.13,19.72,11.92,23.67c3.08,6.83,5.88,34.42,3.58,35.08,0,0,1.38,10.17-.25,12.5s-1.17,11.65-2.5,15.5-1.08,8.08-4.75,9.75c0.91-1.54-4.23,7.07-4,6.83,0,0-6.33-4.37-5-9.85s-8-25.15-5.33-30.81-6.67-13.33-9.33-13.33-18.58-1.33-21-9.58c-0.82-2.87-10.2-10.25-15.21-11.75C153.39,62.08,138.71,62.09,138.71,62.09Z" fill="#262424"/>
      <path d="M75.38,33.09c-14.48,12.71-14.67,27.33-13,30.67s7,20,4.67,24.67c0,0,13.33-19.33,12.67-27.67s9.67-22.67,13.67-24.33S79.63,29.36,75.38,33.09Z" fill="#fff" opacity="0.18"/>
      <path d="M96.38,73.55s23.67-5.45,26-10.79-0.67-17.33,2-19S107,42.43,100.71,51.09s-12,24.67-16.67,27S96.38,73.55,96.38,73.55Z" fill="#fff" opacity="0.18"/>
      <path d="M184,24.76s26,24,25.67,33-1,24.33-3,24.67S190,49.76,190.38,47.76A31.69,31.69,0,0,0,184,24.76Z" fill="#fff" opacity="0.18"/>
      <path d="M162.71,15.76C159,13.43,146,11.09,140.38,10.09s-23,0-28.67,0-13,12.67-15.33,13,17.83,8.33,21.92,7.33,9.42-9.36,17.75-10.35S162.71,15.76,162.71,15.76Z" fill="#fff" opacity="0.18"/>
    </g>
    <g id="left-eye">
      <circle cx="105.63" cy="117.68" r="9.08"/>
      <circle cx="101.43" cy="114.77" r="2.03" fill="#f4f4f4"/>
    </g>
    <g id="right-eye">
      <circle cx="161.75" cy="117.68" r="9.08"/>
      <circle cx="157.56" cy="114.77" r="2.03" fill="#f4f4f4"/>
    </g>
    <g id="mouth">
      <path d="M134.71,160.61v7c13.91-.88,19.83-10.77,19.83-10.77C145.68,160.81,134.71,160.61,134.71,160.61Z" fill="#f4f4f4"/>
      <path d="M114.87,156.84s5.92,9.89,19.83,10.77v-7S123.73,160.81,114.87,156.84Z" fill="#f4f4f4"/>
    </g>
  </g>
  <g id="kragen">
    <polygon points="114.75 211.3 103.5 215.18 99.75 277.43 134.71 268.05 114.75 211.3" fill="#fff"/>
    <polygon points="154.67 211.3 165.92 215.18 169.67 277.43 134.71 268.05 154.67 211.3" fill="#fff"/>
  </g>
  <polygon id="shirt-right" points="183.13 400.93 228.5 353.18 202.63 297.18 195.63 307.68 134.25 310.78 132.87 268.55 134.71 268.05 167.56 276.86 164.21 216.18 215.13 230.84 269.63 361.18 195.63 429.68 183.13 400.93" fill="#2e2d35"/>
  <path id="ipad-rahmen" d="M188.38,292.43l-78.75,22.5a13.1,13.1,0,0,0-6.25,14.48L135.88,443s4.87,7.17,16.31,4.17l74.44-22s9.25-3.75,6.25-16L200.63,300.43S200.63,292.68,188.38,292.43Z" fill="#161616"/>
  <rect id="ipad-camera" x="145.38" y="309.93" width="11.08" height="1.67" transform="translate(-77.46 51.54) rotate(-15.48)" fill="#e5e5e5"/>
  <rect id="ipad-screen" x="127.65" y="319.1" width="81.34" height="103.22" transform="translate(-96.28 61.29) rotate(-16.11)" fill="#e5e5e5"/>
  <polygon id="right-hand" points="148.63 405.68 183.13 400.93 195.63 429.68 142.88 440.68 168.24 413.25 148.63 405.68" fill="#fbd5a6"/>
  <rect id="ipad-leiste" x="113.85" y="321.05" width="81.34" height="3.75" transform="translate(-83.56 55.58) rotate(-16.11)" fill="#bfbfbf"/>
  <g id="iphone">
    <path id="iphone-rahmen" d="M19.63,454.3s-3.5-1.75-4.5,1.25-7.87,26.13-7.87,26.13-0.12,3.75,2.25,4.5,59.25,17.25,59.25,17.25,3.63,0.75,4.88-4.25,7.13-25.37,7.13-25.37S81,470.93,77,469.68,19.63,454.3,19.63,454.3Z" fill="#161616"/>
    <rect x="12.69" y="475.9" width="8" height="1.46" transform="translate(-443.22 350.36) rotate(-72.64)" fill="#e5e5e5"/>
    <rect x="16.28" y="464.41" width="8" height="1.46" transform="translate(-429.73 345.72) rotate(-72.64)" fill="#e5e5e5"/>
    <rect x="68.59" y="485.6" width="8" height="1.46" transform="translate(-415.22 424.48) rotate(-74.29)" fill="#e5e5e5"/>
    <polygon id="iphone-screen" points="17.88 486.33 24.44 463.24 26.06 458.24 70.38 469.49 62.56 498.86 17.88 486.33" fill="#e5e5e5"/>
  </g>
  <polygon id="left-hand" points="15.79 443.01 19.04 459.93 56.38 501.26 51.88 462.76 73.04 468.43 46.79 443.01 15.79 443.01" fill="#fdd4a6"/>
  <g id="right-shoe">
    <polygon points="169.88 754.43 169.88 802.68 197.88 819.68 205.63 790.93 187.75 754.43 169.88 754.43" fill="#8bc681"/>
    <polygon points="169.88 786.81 180.54 783.8 179.76 781.04 169.88 783.83 169.88 786.81" fill="#e0e0e0"/>
    <polygon points="200.75 780.96 190.61 779.95 190.32 782.81 202.23 784 200.75 780.96" fill="#e0e0e0"/>
    <polygon points="196.35 771.99 187.36 771.09 187.07 773.95 197.84 775.03 196.35 771.99" fill="#e0e0e0"/>
    <polygon points="169.88 777.13 179.37 774.45 178.59 771.68 169.88 774.14 169.88 777.13" fill="#e0e0e0"/>
  </g>
  <g id="left-shoe">
    <polygon points="104.54 754.43 104.54 802.68 76.54 819.68 68.79 790.93 86.67 754.43 104.54 754.43" fill="#8bc681"/>
    <polygon points="104.75 787.02 94.08 784.01 94.87 781.25 104.75 784.04 104.75 787.02" fill="#e0e0e0"/>
    <polygon points="73.88 781.17 84.02 780.16 84.31 783.01 72.39 784.21 73.88 781.17" fill="#e0e0e0"/>
    <polygon points="78.06 771.99 87.06 771.09 87.55 774.16 76.79 775.24 78.06 771.99" fill="#e0e0e0"/>
    <polygon points="104.75 777.34 95.25 774.66 96.03 771.89 104.75 774.35 104.75 777.34" fill="#e0e0e0"/>
  </g>
  <polygon id="right-arm" points="219.46 362.69 183.13 400.93 195.63 429.68 229.9 397.95 219.46 362.69" fill="#2e2d35"/>
</svg>
