<svg id="table" xmlns="http://www.w3.org/2000/svg" viewBox="0 0 444 283">
  <title>table</title>
  <path id="table-body" d="M436.5,0H7.5A7.5,7.5,0,0,0,0,7.5v36A7.5,7.5,0,0,0,7.5,51H18.14V275.5a7.5,7.5,0,0,0,7.5,7.5H54.36a7.5,7.5,0,0,0,7.5-7.5V108.44H382.14V275.5a7.5,7.5,0,0,0,7.5,7.5h28.72a7.5,7.5,0,0,0,7.5-7.5V51H436.5a7.5,7.5,0,0,0,7.5-7.5V7.5A7.5,7.5,0,0,0,436.5,0ZM33.14,268V51H46.86V268H33.14ZM61.86,51h58.53V93.44H61.86V51Zm73.53,42.45V51H308.61V93.44H135.39Zm246.75,0H323.61V51h58.53V93.44ZM410.86,268H397.14V51h13.72V268ZM429,36H15V15H429V36Z"/>
  <path id="table-knot" d="M222,64.73a7.49,7.49,0,1,0,5.3,2.19A7.59,7.59,0,0,0,222,64.73Z"/>
</svg>
