<svg id="thesis-printer" xmlns="http://www.w3.org/2000/svg" viewBox="0 0 194 123">
  <title>drucker</title>
  <g id="printer">
    <rect y="55" width="194" height="54" fill="#7b99a3"/>
    <path d="M0,109H10a0,0,0,0,1,0,0v9a5,5,0,0,1-5,5H5a5,5,0,0,1-5-5v-9A0,0,0,0,1,0,109Z" fill="#7b99a3"/>
    <path d="M184,109h10a0,0,0,0,1,0,0v9a5,5,0,0,1-5,5h0a5,5,0,0,1-5-5v-9A0,0,0,0,1,184,109Z" fill="#7b99a3"/>
    <g id="printer-lights-left">
      <circle id="printer-light-top-left" cx="24" cy="72" r="7" fill="#f8876e"/>
      <circle id="printer-light-bottom-left" cx="24" cy="92" r="7" fill="#f8ad43"/>
    </g>
    <g id="printer-lights-right">
      <circle id="printer-light-top-right" cx="170" cy="72" r="7" fill="#f8876e"/>
      <circle id="printer-light-bottom-right" cx="170" cy="92" r="7" fill="#f8ad43"/>
    </g>
    <line x1="116" y1="98" x2="78" y2="98" fill="none" stroke="#294c67" stroke-linecap="round" stroke-miterlimit="10" stroke-width="4"/>
    <line x1="116" y1="92" x2="78" y2="92" fill="none" stroke="#294c67" stroke-linecap="round" stroke-miterlimit="10" stroke-width="4"/>
    <line x1="116" y1="86" x2="78" y2="86" fill="none" stroke="#294c67" stroke-linecap="round" stroke-miterlimit="10" stroke-width="4"/>
    <line x1="116" y1="80" x2="78" y2="80" fill="none" stroke="#294c67" stroke-linecap="round" stroke-miterlimit="10" stroke-width="4"/>
    <line x1="116" y1="74" x2="78" y2="74" fill="none" stroke="#294c67" stroke-linecap="round" stroke-miterlimit="10" stroke-width="4"/>
    <line x1="116" y1="68" x2="78" y2="68" fill="none" stroke="#294c67" stroke-linecap="round" stroke-miterlimit="10" stroke-width="4"/>
    <rect x="144" y="55" width="4" height="54" fill="#294c67"/>
    <rect x="46" y="55" width="4" height="54" fill="#294c67"/>
  </g>
  <g id="paper">
    <rect x="10" width="174" height="68.67" fill="#efefef"/>
    <rect x="160" y="7" width="18" height="52" fill="none" stroke="#fcdeb4" stroke-linecap="round" stroke-linejoin="round" stroke-width="2"/>
    <rect x="16" y="6" width="18" height="52" fill="none" stroke="#fcdeb4" stroke-linecap="round" stroke-linejoin="round" stroke-width="2"/>
    <g id="paper-blue-dots">
      <g>
        <circle cx="169" cy="48" r="4" fill="#294c67"/>
        <circle cx="169" cy="37" r="4" fill="#294c67"/>
        <circle cx="169" cy="26" r="4" fill="#294c67"/>
        <circle cx="169" cy="15" r="4" fill="#294c67"/>
      </g>
      <g>
        <circle cx="25" cy="48" r="4" fill="#294c67"/>
        <circle cx="25" cy="37" r="4" fill="#294c67"/>
        <circle cx="25" cy="26" r="4" fill="#294c67"/>
        <circle cx="25" cy="15" r="4" fill="#294c67"/>
      </g>
    </g>
    <line x1="160" y1="20" x2="35" y2="20" fill="none" stroke="#fcdeb4" stroke-linecap="round" stroke-linejoin="round" stroke-width="2"/>
    <line x1="160" y1="34" x2="35" y2="34" fill="none" stroke="#fcdeb4" stroke-linecap="round" stroke-linejoin="round" stroke-width="2"/>
    <line x1="160" y1="47" x2="35" y2="47" fill="none" stroke="#fcdeb4" stroke-linecap="round" stroke-linejoin="round" stroke-width="2"/>
    <line x1="160" y1="7" x2="35" y2="7" fill="none" stroke="#fcdeb4" stroke-linecap="round" stroke-linejoin="round" stroke-width="2"/>
    <g id="PaperText">
      <text transform="translate(60 38)" font-size="18" fill="#294c67" font-family="PT Mono" font-weight="700">Thesis!</text>
    </g>
  </g>
</svg>
