<svg id="boy" xmlns="http://www.w3.org/2000/svg" viewBox="0 0 258.84 486.36">
  <title>boy</title>
  <g id="boy-face">
    <path d="M93.84,133.33s-20.66,40.9,0,72.65c0,0,18.91,30.25,82.41,26.25,0,0,41.5,2.75,61-33,0,0,15.25-33.75,6-61L220,119s-56.25-3.25-59.25-3.5-52.25,2-52.25,2Z" fill="#fdd4a6"/>
    <path id="boy-hair" d="M144.92,60.15l-2.67-21.33,14.33,16.67,10.67-15,3,18,19-7.33-7.67,14s36.67-2.33,46,3.33,43.67,30,19,83.33l-17.33,6.67-9-18.67-16.33,14-20.33-16.67-20.33,13.67-14.33-16-18.67,11.33-12.33-13.67-16.67,12-9.33-7-5.33,10S53.25,58.15,144.92,60.15Z" fill="#a56c21"/>
    <path id="boy-mouth" d="M182.25,211.48l21.33-11.67s2.67,14.33-2.17,16.83S179.29,213.1,182.25,211.48Z" fill="#fff"/>
    <g id="boy-eye-left">
      <circle cx="120.41" cy="168.39" r="8.03" fill="#161616"/>
      <circle cx="116.98" cy="164.78" r="1.11" fill="#fcfcfc"/>
    </g>
    <g id="boy-eye-right">
      <circle cx="202.07" cy="174.03" r="8.03" fill="#161616"/>
      <circle cx="198.65" cy="170.42" r="1.11" fill="#fcfcfc"/>
    </g>
    <path d="M245,172.49s12.45-1,10.37,8.16c-1.41,6.18-8.42,12.86-15.84,12.85-2.44,0-4.75-2.69-4.75-2.69l0.83-8.75Z" fill="#fdd4a6"/>
    <path d="M84.65,168.39s-9.24-1.41-10.07,4.07c-0.63,4.13,4.5,13.19,8.33,14.52,2.26,0.79,6.34-1,6.34-1l1.67-14.45Z" fill="#fdd4a6"/>
  </g>
  <g id="boy-cap">
    <rect x="72.17" y="101.06" width="186.67" height="8.42" fill="#d6d2ce"/>
    <path d="M165.5,14.41s-15.1.06-43.7,27-11.51,59.66-11.51,59.66H229.87S217.93,18.06,165.5,14.41Z" fill="#6d7eb5"/>
    <path d="M72.17,101.06s3.71-81.95,93.33-86.65c0,0-40.35,2.48-43.57,86.65H72.17Z" fill="#ba4561"/>
    <path d="M258.84,101.06s-6.56-80.58-93.33-86.65c0,0,37.82-1.67,43.39,86.65h49.95Z" fill="#ba4561"/>
    <path d="M72.17,109.48L0,139.25s8,11,14.67,14.67,26.18,13,48.28,3.16c0,0,10.77-6.5,13.18-8.54l45.49-39.05H72.17Z" fill="#4f6d44"/>
    <circle cx="165.5" cy="7.2" r="7.2" fill="#949647"/>
  </g>
  <path id="backpack" d="M166.28,240.29L188,245.23S206.51,273.1,208.15,277,199.3,346,195.2,349.36s-35.1,7.79-41.55-.89,7.76-84.66,7.76-84.66L166.17,243" fill="#596c9b"/>
  <g id="boy-shoes">
    <polygon points="137.93 434.06 132.42 442.98 112.38 457.86 118.63 462.48 132.88 465.61 162.75 464.15 159.15 434.89 137.93 434.06" fill="#ba4561"/>
    <polygon points="167.58 436.31 169.58 463.31 191.42 483.61 209.5 486.36 215.9 479.18 201.25 437.15 198.25 428.81 183.92 428.81 167.58 436.31" fill="#ba4561"/>
    <rect x="191.55" y="462.8" width="16" height="3.26" transform="translate(-122.61 74.91) rotate(-16.34)" fill="#313233"/>
    <rect x="188.9" y="456.52" width="16" height="3.19" transform="translate(-120.94 73.91) rotate(-16.34)" fill="#313233"/>
    <rect x="125.91" y="450.74" width="8.68" height="2.55" transform="translate(357.77 40.29) rotate(45)" fill="#313233"/>
    <rect x="129.37" y="447.28" width="8.68" height="2.55" transform="translate(356.34 36.83) rotate(45)" fill="#313233"/>
  </g>
  <path id="socks-left" d="M130.54,410.37l7.4,23.69,21.22,0.83s-2.74-21.34-4.52-26.64C152.3,401.29,130.54,410.37,130.54,410.37Z" fill="#fff"/>
  <path id="socks-right" d="M167.58,436.31s16.67,9.33,30.67-7.5L189.5,406l-6.58-4.67-11.67,2.33-8.5,5.46Z" fill="#fff"/>
  <path id="boy-leg-left" d="M123.72,385.5L131.25,413s17.13,3.63,24.14-1.15l-5.51-26.23L149.06,376s-6.84-3.25-8.45-3-22.52,5.25-22.52,5.25Z" fill="#fdd4a6"/>
  <path id="boy-leg-right" d="M158.75,387l4,21.13s11.13,4.38,26.75-3.12L179,378.61h-6.75Z" fill="#fdd4a6"/>
  <path id="boy-shorts" d="M102.92,345.15l11.58,41.58,26.25-3.5,2.25,7.5,51-1.25-10.46-30.67s-3.83-12.4-6.83-14.08-42.75-7.25-43.5-7.25-31.87,1.92-31.87,1.92l1.06,4.15" fill="#6d7eb5"/>
  <path id="boy-hals" d="M143.13,228.35V248s28.08-1.5,31.25-2.5l-0.23-13.25Z" fill="#fdd4a6"/>
  <polygon id="boy-arm-left" points="101 272.98 98.25 297.48 102.27 340.82 123.92 325.15 114.42 313.48 111.54 295.13 122.46 271.58 101 272.98" fill="#fdd4a6"/>
  <polygon id="boy-arm-right" points="201.6 274.69 208.75 298.11 181.24 353.06 178.63 346.61 177.28 335.61 191.88 297.23 187.6 282.18 201.6 274.69" fill="#fdd4a6"/>
  <path id="boy-shirt" d="M99.6,342.7l82.31,8.12,4-70,1,3.15,17.4-8.36-19.69-29.92L174.3,241s-18.53,12.82-31.17-.16c-1-1-32.87,20.33-32.87,20.33l-12,13.33,21.26,2.64Z" fill="#a56c21"/>
  <path id="backpack-traeger" d="M174.3,241s-17.78,24.89,10.88,58.89l0.53-13.12s-17.56-16.79-8.26-44.33Z" fill="#6d7eb5"/>
</svg>
